<svg width="24" height="24" viewBox="0 0 24 24" fill="none" xmlns="http://www.w3.org/2000/svg">
<g clip-path="url(#clip0_4_751)">
<path d="M20.5 3L20.34 3.03L15 5.1L9 3L3.36 4.9C3.15 4.97 3 5.15 3 5.38V20.5C3 20.78 3.22 21 3.5 21L3.66 20.97L9 18.9L15 21L20.64 19.1C20.85 19.03 21 18.85 21 18.62V3.5C21 3.22 20.78 3 20.5 3ZM15 19L9 16.89V5L15 7.11V19Z" fill="black"/>
<path d="M20.5 3L20.34 3.03L15 5.1L9 3L3.36 4.9C3.15 4.97 3 5.15 3 5.38V20.5C3 20.78 3.22 21 3.5 21L3.66 20.97L9 18.9L15 21L20.64 19.1C20.85 19.03 21 18.85 21 18.62V3.5C21 3.22 20.78 3 20.5 3ZM15 19L9 16.89V5L15 7.11V19Z" fill="url(#paint0_linear_4_751)"/>
</g>
<defs>
<linearGradient id="paint0_linear_4_751" x1="3.00425" y1="11.9797" x2="21.008" y2="11.9797" gradientUnits="userSpaceOnUse">
<stop stop-color="#3D54CE"/>
<stop offset="1" stop-color="#35CACF"/>
</linearGradient>
<clipPath id="clip0_4_751">
<rect width="24" height="24" fill="white"/>
</clipPath>
</defs>
</svg>
